
<svg version="1.1" xmlns="http://www.w3.org/2000/svg" xmlns:xlink="http://www.w3.org/1999/xlink" x="0px" y="0px"
	 viewBox="0 0 178 64" style="enable-background:new 0 0 178 64;" xml:space="preserve">
<style type="text/css">
	.st0{clip-path:url(#SVGID_00000080192746825349927650000002240847692511604141_);}
	.st1{fill:#656565;}
	.st2{fill:url(#SVGID_00000083075059394836844930000002073000348185278615_);}
	.st3{fill:url(#SVGID_00000150815411262695814600000011364172113262016919_);}
	.st4{opacity:0.4;fill:#691A70;enable-background:new    ;}
	.st5{fill:#691A70;}
	.st6{fill:#370E3A;}
	.st7{fill:#F03CFF;}
	.st8{fill:url(#SVGID_00000103943447048493182120000008315406892780871339_);}
	.st9{fill:url(#SVGID_00000138573643658268225190000012762532421539438519_);}
	.st10{fill:url(#SVGID_00000055675059100893251060000014529790276869759640_);}
	.st11{fill:url(#SVGID_00000118358750642196750840000014253496211882784447_);}
</style>
<g>
	<defs>
		<rect id="SVGID_1_" width="178" height="64"/>
	</defs>
	<clipPath id="SVGID_00000152951431897491108700000014400692591162237097_">
		<use xlink:href="#SVGID_1_"  style="overflow:visible;"/>
	</clipPath>
	<g style="clip-path:url(#SVGID_00000152951431897491108700000014400692591162237097_);">
		<path class="st1" d="M25,0h-4L9,64h4L25,0z"/>
		
			<linearGradient id="SVGID_00000035511051051160870710000013380765852178615482_" gradientUnits="userSpaceOnUse" x1="187.6638" y1="18.2363" x2="30.6737" y2="46.4663" gradientTransform="matrix(1 0 0 -1 0 66)">
			<stop  offset="0.91" style="stop-color:#65196A"/>
			<stop  offset="1" style="stop-color:#601866"/>
		</linearGradient>
		<path style="fill:url(#SVGID_00000035511051051160870710000013380765852178615482_);" d="M178,0H34L22,64h144L178,0z"/>
		
			<linearGradient id="SVGID_00000170996525640278306260000011689442616990274487_" gradientUnits="userSpaceOnUse" x1="186.1381" y1="26.2394" x2="27.2881" y2="40.3794" gradientTransform="matrix(1 0 0 -1 0 66)">
			<stop  offset="0.86" style="stop-color:#401042;stop-opacity:0.44"/>
			<stop  offset="1" style="stop-color:#360D37"/>
		</linearGradient>
		<path style="fill:url(#SVGID_00000170996525640278306260000011689442616990274487_);" d="M176.2,1.5h-143l-11.6,61h143L176.2,1.5z
			"/>
		<path class="st4" d="M46.1,4H54L40.9,61H33L46.1,4z"/>
		<path class="st5" d="M36.7,4H42L30.3,61H25L36.7,4z"/>
		<path class="st4" d="M56.9,4H72L59.1,61H44L56.9,4z M75.8,4H110L97.2,61H63L75.8,4z"/>
		<path class="st6" d="M18,0h9l-9,64H3.2L18,0z"/>
		<path class="st7" d="M12,0h9L9,64H0L12,0z M25,0h9L22,64h-9L25,0z"/>
		
			<linearGradient id="SVGID_00000101820037358026815400000000393697837185825411_" gradientUnits="userSpaceOnUse" x1="23" y1="65" x2="23" y2="3" gradientTransform="matrix(1 0 0 -1 0 66)">
			<stop  offset="0" style="stop-color:#E6E6E6"/>
			<stop  offset="1" style="stop-color:#DEDEDE"/>
		</linearGradient>
		<path style="fill:url(#SVGID_00000101820037358026815400000000393697837185825411_);" d="M25,0h8L21,64h-8L25,0z"/>
		
			<linearGradient id="SVGID_00000155129066491315228340000001896031148129256894_" gradientUnits="userSpaceOnUse" x1="23" y1="65" x2="23" y2="3" gradientTransform="matrix(1 0 0 -1 0 66)">
			<stop  offset="0" style="stop-color:#D836E6"/>
			<stop  offset="1" style="stop-color:#D134DE"/>
		</linearGradient>
		<path style="fill:url(#SVGID_00000155129066491315228340000001896031148129256894_);" d="M25,0h8L21,64h-8L25,0z"/>
		
			<linearGradient id="SVGID_00000101077755417032716280000005550545995487073934_" gradientUnits="userSpaceOnUse" x1="10" y1="65" x2="10" y2="3" gradientTransform="matrix(1 0 0 -1 0 66)">
			<stop  offset="0" style="stop-color:#E6E6E6"/>
			<stop  offset="1" style="stop-color:#DEDEDE"/>
		</linearGradient>
		<path style="fill:url(#SVGID_00000101077755417032716280000005550545995487073934_);" d="M12,0h8L8,64H0L12,0z"/>
		
			<linearGradient id="SVGID_00000017481004918538111060000004304401520753883523_" gradientUnits="userSpaceOnUse" x1="10" y1="65" x2="10" y2="3" gradientTransform="matrix(1 0 0 -1 0 66)">
			<stop  offset="0" style="stop-color:#D836E6"/>
			<stop  offset="1" style="stop-color:#D134DE"/>
		</linearGradient>
		<path style="fill:url(#SVGID_00000017481004918538111060000004304401520753883523_);" d="M12,0h8L8,64H0L12,0z"/>
	</g>
</g>
</svg>
