
<svg version="1.1" xmlns="http://www.w3.org/2000/svg" xmlns:xlink="http://www.w3.org/1999/xlink" x="0px" y="0px"
	 viewBox="0 0 178 64" style="enable-background:new 0 0 178 64;" xml:space="preserve">
<style type="text/css">
	.st0{clip-path:url(#SVGID_00000027589022695787002010000008684822597296583852_);}
	.st1{fill:#656565;}
	.st2{fill:url(#SVGID_00000057868569920898482940000017654822273971378618_);}
	.st3{fill:url(#SVGID_00000122680002625291433090000006406079129717258420_);}
	.st4{opacity:0.4;fill:#3D5770;enable-background:new    ;}
	.st5{fill:#3D5770;}
	.st6{fill:#202D3A;}
	.st7{fill:#8CC6FF;}
	.st8{fill:url(#SVGID_00000161592191597981693740000013842437162203605674_);}
	.st9{fill:url(#SVGID_00000152225600585684222500000005453769887928043402_);}
	.st10{fill:url(#SVGID_00000091709015545218759840000004625691726677133741_);}
	.st11{fill:url(#SVGID_00000114052508452833131920000001842133068247248779_);}
</style>
<g>
	<defs>
		<rect id="SVGID_1_" width="178" height="64"/>
	</defs>
	<clipPath id="SVGID_00000112598086087756369270000010180783525555730088_">
		<use xlink:href="#SVGID_1_"  style="overflow:visible;"/>
	</clipPath>
	<g style="clip-path:url(#SVGID_00000112598086087756369270000010180783525555730088_);">
		<path class="st1" d="M25,0h-4L9,64h4L25,0z"/>
		
			<linearGradient id="SVGID_00000039099263184482792530000017281743271390300083_" gradientUnits="userSpaceOnUse" x1="187.6638" y1="18.2363" x2="30.6737" y2="46.4663" gradientTransform="matrix(1 0 0 -1 0 66)">
			<stop  offset="0.91" style="stop-color:#3B526A"/>
			<stop  offset="1" style="stop-color:#384F66"/>
		</linearGradient>
		<path style="fill:url(#SVGID_00000039099263184482792530000017281743271390300083_);" d="M178,0H34L22,64h144L178,0z"/>
		
			<linearGradient id="SVGID_00000057115561295021548620000011319778341270757269_" gradientUnits="userSpaceOnUse" x1="186.1381" y1="26.2394" x2="27.2881" y2="40.3794" gradientTransform="matrix(1 0 0 -1 0 66)">
			<stop  offset="0.86" style="stop-color:#253342;stop-opacity:0.44"/>
			<stop  offset="1" style="stop-color:#1F2B37"/>
		</linearGradient>
		<path style="fill:url(#SVGID_00000057115561295021548620000011319778341270757269_);" d="M176.2,1.5h-143l-11.6,61h143L176.2,1.5z
			"/>
		<path class="st4" d="M46.1,4H54L40.9,61H33L46.1,4z"/>
		<path class="st5" d="M36.7,4H42L30.3,61H25L36.7,4z"/>
		<path class="st4" d="M56.9,4H72L59.1,61H44L56.9,4z M75.8,4H110L97.2,61H63L75.8,4z"/>
		<path class="st6" d="M18,0h9l-9,64H3.2L18,0z"/>
		<path class="st7" d="M12,0h9L9,64H0L12,0z M25,0h9L22,64h-9L25,0z"/>
		
			<linearGradient id="SVGID_00000180341926932994986130000004388323657867560324_" gradientUnits="userSpaceOnUse" x1="23" y1="65" x2="23" y2="3" gradientTransform="matrix(1 0 0 -1 0 66)">
			<stop  offset="0" style="stop-color:#E6E6E6"/>
			<stop  offset="1" style="stop-color:#DEDEDE"/>
		</linearGradient>
		<path style="fill:url(#SVGID_00000180341926932994986130000004388323657867560324_);" d="M25,0h8L21,64h-8L25,0z"/>
		
			<linearGradient id="SVGID_00000181076711228126694160000002567228921801031317_" gradientUnits="userSpaceOnUse" x1="23" y1="65" x2="23" y2="3" gradientTransform="matrix(1 0 0 -1 0 66)">
			<stop  offset="1.353259e-06" style="stop-color:#7EB3E6"/>
			<stop  offset="1" style="stop-color:#7AACDE"/>
		</linearGradient>
		<path style="fill:url(#SVGID_00000181076711228126694160000002567228921801031317_);" d="M25,0h8L21,64h-8L25,0z"/>
		
			<linearGradient id="SVGID_00000126319077755460161520000002207750974346792869_" gradientUnits="userSpaceOnUse" x1="10" y1="65" x2="10" y2="3" gradientTransform="matrix(1 0 0 -1 0 66)">
			<stop  offset="0" style="stop-color:#E6E6E6"/>
			<stop  offset="1" style="stop-color:#DEDEDE"/>
		</linearGradient>
		<path style="fill:url(#SVGID_00000126319077755460161520000002207750974346792869_);" d="M12,0h8L8,64H0L12,0z"/>
		
			<linearGradient id="SVGID_00000076574093242408242750000006974256884859473551_" gradientUnits="userSpaceOnUse" x1="10" y1="65" x2="10" y2="3" gradientTransform="matrix(1 0 0 -1 0 66)">
			<stop  offset="0" style="stop-color:#7EB3E6"/>
			<stop  offset="1" style="stop-color:#7AACDE"/>
		</linearGradient>
		<path style="fill:url(#SVGID_00000076574093242408242750000006974256884859473551_);" d="M12,0h8L8,64H0L12,0z"/>
	</g>
</g>
</svg>
