

<svg version="1.1" xmlns="http://www.w3.org/2000/svg" xmlns:xlink="http://www.w3.org/1999/xlink" x="0px" y="0px"
	 viewBox="0 0 178 64" style="enable-background:new 0 0 178 64;" xml:space="preserve">
<style type="text/css">
	.st0{clip-path:url(#SVGID_00000039851382707584492310000002258264527868814732_);}
	.st1{fill:#656565;}
	.st2{fill:url(#SVGID_00000080180833192202055500000011212138150652401822_);}
	.st3{fill:url(#SVGID_00000062184299440351157950000005840784600225693844_);}
	.st4{opacity:0.4;fill:#552D70;enable-background:new    ;}
	.st5{fill:#552D70;}
	.st6{fill:#3A3A3A;}
	.st7{fill:#C166FF;}
	.st8{fill:url(#SVGID_00000091010836669225770790000014626906218862476980_);}
	.st9{fill:url(#SVGID_00000163789751798906425070000008705139205348158372_);}
	.st10{fill:url(#SVGID_00000115506312269163693670000018172537987092960654_);}
	.st11{fill:url(#SVGID_00000027606976969761192100000006640090831591988383_);}
</style>
<g>
	<defs>
		<rect id="SVGID_1_" width="178" height="64"/>
	</defs>
	<clipPath id="SVGID_00000087385259359416877400000011147207897669844143_">
		<use xlink:href="#SVGID_1_"  style="overflow:visible;"/>
	</clipPath>
	<g style="clip-path:url(#SVGID_00000087385259359416877400000011147207897669844143_);">
		<path class="st1" d="M25,0h-4L9,64h4L25,0z"/>
		
			<linearGradient id="SVGID_00000135679854939802275020000006527514675644524933_" gradientUnits="userSpaceOnUse" x1="187.6638" y1="18.2363" x2="30.6737" y2="46.4663" gradientTransform="matrix(1 0 0 -1 0 66)">
			<stop  offset="0.91" style="stop-color:#512A6A"/>
			<stop  offset="1" style="stop-color:#4D2966"/>
		</linearGradient>
		<path style="fill:url(#SVGID_00000135679854939802275020000006527514675644524933_);" d="M178,0H34L22,64h144L178,0z"/>
		
			<linearGradient id="SVGID_00000072243278969115980470000002756958868198971314_" gradientUnits="userSpaceOnUse" x1="186.1381" y1="26.2394" x2="27.2881" y2="40.3794" gradientTransform="matrix(1 0 0 -1 0 66)">
			<stop  offset="0.86" style="stop-color:#331A42;stop-opacity:0.44"/>
			<stop  offset="1" style="stop-color:#2B1637"/>
		</linearGradient>
		<path style="fill:url(#SVGID_00000072243278969115980470000002756958868198971314_);" d="M176.2,1.5h-143l-11.6,61h143L176.2,1.5z
			"/>
		<path class="st4" d="M46.1,4H54L40.9,61H33L46.1,4z"/>
		<path class="st5" d="M36.7,4H42L30.3,61H25L36.7,4z"/>
		<path class="st4" d="M56.9,4H72L59.1,61H44L56.9,4z M75.8,4H110L97.2,61H63L75.8,4z"/>
		<path class="st6" d="M18,0h9l-9,64H3.2L18,0z"/>
		<path class="st7" d="M12,0h9L9,64H0L12,0z M25,0h9L22,64h-9L25,0z"/>
		
			<linearGradient id="SVGID_00000130621752499743221800000008456562605457618824_" gradientUnits="userSpaceOnUse" x1="23" y1="65" x2="23" y2="3" gradientTransform="matrix(1 0 0 -1 0 66)">
			<stop  offset="0" style="stop-color:#E6E6E6"/>
			<stop  offset="1" style="stop-color:#DEDEDE"/>
		</linearGradient>
		<path style="fill:url(#SVGID_00000130621752499743221800000008456562605457618824_);" d="M25,0h8L21,64h-8L25,0z"/>
		
			<linearGradient id="SVGID_00000172442148492695243940000004535081226049543356_" gradientUnits="userSpaceOnUse" x1="23" y1="65" x2="23" y2="3" gradientTransform="matrix(1 0 0 -1 0 66)">
			<stop  offset="0" style="stop-color:#AE5CE6"/>
			<stop  offset="1" style="stop-color:#A859DE"/>
		</linearGradient>
		<path style="fill:url(#SVGID_00000172442148492695243940000004535081226049543356_);" d="M25,0h8L21,64h-8L25,0z"/>
		
			<linearGradient id="SVGID_00000183244722785602147830000004645704318438011313_" gradientUnits="userSpaceOnUse" x1="10" y1="65" x2="10" y2="3" gradientTransform="matrix(1 0 0 -1 0 66)">
			<stop  offset="0" style="stop-color:#E6E6E6"/>
			<stop  offset="1" style="stop-color:#DEDEDE"/>
		</linearGradient>
		<path style="fill:url(#SVGID_00000183244722785602147830000004645704318438011313_);" d="M12,0h8L8,64H0L12,0z"/>
		
			<linearGradient id="SVGID_00000098214849576495492290000015151684505297115581_" gradientUnits="userSpaceOnUse" x1="10" y1="65" x2="10" y2="3" gradientTransform="matrix(1 0 0 -1 0 66)">
			<stop  offset="0" style="stop-color:#AE5CE6"/>
			<stop  offset="1" style="stop-color:#A859DE"/>
		</linearGradient>
		<path style="fill:url(#SVGID_00000098214849576495492290000015151684505297115581_);" d="M12,0h8L8,64H0L12,0z"/>
	</g>
</g>
</svg>
